<svg width="48" height="48" viewBox="0 0 48 48" fill="none" xmlns="http://www.w3.org/2000/svg">
<g filter="url(#filter0_d_3_1113)">
<path d="M13.8459 18.437C13.8459 17.6448 13.8462 17.0826 13.8778 16.641C13.9089 16.2052 13.9682 15.9337 14.0627 15.717C14.3248 15.1162 14.8044 14.6366 15.4052 14.3744C15.6219 14.2799 15.8934 14.2207 16.3292 14.1896C16.7709 14.158 17.333 14.1576 18.1253 14.1576C18.9175 14.1576 19.4797 14.158 19.9213 14.1896C20.3571 14.2207 20.6287 14.2799 20.8453 14.3744C21.4462 14.6366 21.9257 15.1162 22.1879 15.717C22.2824 15.9337 22.3416 16.2052 22.3728 16.641C22.4043 17.0826 22.4047 17.6448 22.4047 18.437C22.4047 19.2293 22.4043 19.7915 22.3728 20.2331C22.3416 20.6689 22.2824 20.9404 22.1879 21.1571C21.9257 21.7579 21.4462 22.2375 20.8453 22.4997C20.6287 22.5942 20.3571 22.6534 19.9213 22.6845C19.4797 22.7161 18.9175 22.7165 18.1253 22.7165C17.333 22.7165 16.7709 22.7161 16.3292 22.6845C15.8934 22.6534 15.6219 22.5942 15.4052 22.4997C14.8044 22.2375 14.3248 21.7579 14.0627 21.1571C13.9682 20.9404 13.9089 20.6689 13.8778 20.2331C13.8462 19.7915 13.8459 19.2293 13.8459 18.437Z" stroke="white" stroke-width="1.22103"/>
<path d="M13.8459 30.0506C13.8459 29.2583 13.8462 28.6962 13.8778 28.2545C13.9089 27.8187 13.9682 27.5472 14.0627 27.3305C14.3248 26.7297 14.8044 26.2501 15.4052 25.988C15.6219 25.8934 15.8934 25.8342 16.3292 25.8031C16.7709 25.7715 17.333 25.7712 18.1253 25.7712C18.9175 25.7712 19.4797 25.7715 19.9213 25.8031C20.3571 25.8342 20.6287 25.8934 20.8453 25.988C21.4462 26.2501 21.9257 26.7297 22.1879 27.3305C22.2824 27.5472 22.3416 27.8187 22.3728 28.2545C22.4043 28.6962 22.4047 29.2583 22.4047 30.0506C22.4047 30.8428 22.4043 31.405 22.3728 31.8466C22.3416 32.2824 22.2824 32.554 22.1879 32.7706C21.9257 33.3715 21.4462 33.851 20.8453 34.1132C20.6287 34.2077 20.3571 34.2669 19.9213 34.2981C19.4797 34.3296 18.9175 34.33 18.1253 34.33C17.333 34.33 16.7709 34.3296 16.3292 34.2981C15.8934 34.2669 15.6219 34.2077 15.4052 34.1132C14.8044 33.851 14.3248 33.3715 14.0627 32.7706C13.9682 32.554 13.9089 32.2824 13.8778 31.8466C13.8462 31.405 13.8459 30.8428 13.8459 30.0506Z" stroke="white" stroke-width="1.22103"/>
<path d="M25.4596 18.437C25.4596 17.6448 25.46 17.0826 25.4916 16.641C25.5227 16.2052 25.5819 15.9337 25.6764 15.717C25.9386 15.1162 26.4182 14.6366 27.019 14.3744C27.2357 14.2799 27.5072 14.2207 27.943 14.1896C28.3846 14.158 28.9468 14.1576 29.7391 14.1576C30.5313 14.1576 31.0935 14.158 31.5351 14.1896C31.9709 14.2207 32.2424 14.2799 32.4591 14.3744C33.0599 14.6366 33.5395 15.1162 33.8017 15.717C33.8962 15.9337 33.9554 16.2052 33.9865 16.641C34.0181 17.0826 34.0185 17.6448 34.0185 18.437C34.0185 19.2293 34.0181 19.7915 33.9865 20.2331C33.9554 20.6689 33.8962 20.9404 33.8017 21.1571C33.5395 21.7579 33.0599 22.2375 32.4591 22.4997C32.2424 22.5942 31.9709 22.6534 31.5351 22.6845C31.0935 22.7161 30.5313 22.7165 29.7391 22.7165C28.9468 22.7165 28.3846 22.7161 27.943 22.6845C27.5072 22.6534 27.2357 22.5942 27.019 22.4997C26.4182 22.2375 25.9386 21.7579 25.6764 21.1571C25.5819 20.9404 25.5227 20.6689 25.4916 20.2331C25.46 19.7915 25.4596 19.2293 25.4596 18.437Z" stroke="white" stroke-width="1.22103"/>
<path d="M25.4596 30.0506C25.4596 29.2583 25.46 28.6962 25.4916 28.2545C25.5227 27.8187 25.5819 27.5472 25.6764 27.3305C25.9386 26.7297 26.4182 26.2501 27.019 25.988C27.2357 25.8934 27.5072 25.8342 27.943 25.8031C28.3846 25.7715 28.9468 25.7712 29.7391 25.7712C30.5313 25.7712 31.0935 25.7715 31.5351 25.8031C31.9709 25.8342 32.2424 25.8934 32.4591 25.988C33.0599 26.2501 33.5395 26.7297 33.8017 27.3305C33.8962 27.5472 33.9554 27.8187 33.9865 28.2545C34.0181 28.6962 34.0185 29.2583 34.0185 30.0506C34.0185 30.8428 34.0181 31.405 33.9865 31.8466C33.9554 32.2824 33.8962 32.554 33.8017 32.7706C33.5395 33.3715 33.0599 33.851 32.4591 34.1132C32.2424 34.2077 31.9709 34.2669 31.5351 34.2981C31.0935 34.3296 30.5313 34.33 29.7391 34.33C28.9468 34.33 28.3846 34.3296 27.943 34.2981C27.5072 34.2669 27.2357 34.2077 27.019 34.1132C26.4182 33.851 25.9386 33.3715 25.6764 32.7706C25.5819 32.554 25.5227 32.2824 25.4916 31.8466C25.46 31.405 25.4596 30.8428 25.4596 30.0506Z" stroke="white" stroke-width="1.22103"/>
</g>
<defs>
<filter id="filter0_d_3_1113" x="-1.92814" y="-1.61649" width="51.721" height="51.7208" filterUnits="userSpaceOnUse" color-interpolation-filters="sRGB">
<feFlood flood-opacity="0" result="BackgroundImageFix"/>
<feColorMatrix in="SourceAlpha" type="matrix" values="0 0 0 0 0 0 0 0 0 0 0 0 0 0 0 0 0 0 127 0" result="hardAlpha"/>
<feOffset/>
<feGaussianBlur stdDeviation="6.51216"/>
<feComposite in2="hardAlpha" operator="out"/>
<feColorMatrix type="matrix" values="0 0 0 0 1 0 0 0 0 1 0 0 0 0 1 0 0 0 1 0"/>
<feBlend mode="overlay" in2="BackgroundImageFix" result="effect1_dropShadow_3_1113"/>
<feBlend mode="normal" in="SourceGraphic" in2="effect1_dropShadow_3_1113" result="shape"/>
</filter>
</defs>
</svg>
